:SAMPLES-PER-SECOND 30
:FULLY-SPECIFIED
:DEGREES
118
root  -52.0485 38.1412 17.643 -174.951 70.4268 179.7
RightUpLeg  -29.229 -22.5444 -11.4901
RightLeg  21.1469 2.43597 0.51868
RightFoot  3.81653 -1.94581 14.7909
RightToes  0.000482159 0.542163 -0.142577
Spine  21.7268 -2.30551 8.23505
Spine1  0.729758 -0.268382 -2.54541
HEad  -24.7065 34.7738 -19.6284
LeftShoulder1  6.66435 -10.2879 -41.937
LeftArm  -23.958 12.9297 -25.8707
LeftForeArm  42.3729 -63.3502 -18.183
LeftHand  -0.25398 0.0180481 5.50724
RightShoulder  4.18837 7.20961 33.1504
RightArm  -14.5395 3.84899 30.4528
RightForeArm  1.66718 21.1505 4.71666
RightHand  -0.943467 2.55327 -13.9861
LeftUpLeg  10.4429 4.66552 18.9098
LeftLeg  16.7949 -1.8424 0.0913849
LeftFoot  -13.5778 -0.318293 -19.9251
LeftToes  1.06248e-005 4.65856e-005 -8.18499e-006
119
root  -50.1172 38.0939 18.699 -174.737 64.8287 -178.944
RightUpLeg  -27.1603 -23.9823 -11.0881
RightLeg  28.7289 0.355137 -0.0357144
RightFoot  0.256388 -1.41821 13.789
RightToes  0.000482159 0.542163 -0.142577
Spine  21.5669 -2.68918 9.72155
Spine1  1.22613 -0.380644 -2.2851
HEad  -31.4168 45.5373 -28.6125
LeftShoulder1  6.56852 -10.0046 -42.2139
LeftArm  -24.3064 10.7839 -28.058
LeftForeArm  38.7761 -66.676 -22.3277
LeftHand  -0.25398 0.0180481 5.50724
RightShoulder  4.11272 6.9733 33.3073
RightArm  -12.9662 -4.40037 25.5415
RightForeArm  -2.07756 22.5117 4.98523
RightHand  -1.10842 3.17607 -15.2177
LeftUpLeg  6.09226 0.538544 21.6101
LeftLeg  24.4263 4.259 2.4639
LeftFoot  -5.02967 0.737856 -14.4743
LeftToes  1.06248e-005 4.65856e-005 -8.18499e-006
120
root  -48.3401 38.3961 19.5975 -174.808 59.555 -178.473
RightUpLeg  -24.1635 -26.893 -9.7873
RightLeg  32.0814 -2.20174 -1.72174
RightFoot  -5.34962 -0.633373 11.4158
RightToes  0.000482159 0.542163 -0.142577
Spine  21.3635 -2.70064 11.7099
Spine1  1.94453 0.0821342 -2.22296
HEad  -39.3869 53.9342 -37.8574
LeftShoulder1  6.7287 -10.1314 -42.8834
LeftArm  -22.7169 9.59862 -29.9237
LeftForeArm  37.6112 -65.4845 -21.1765
LeftHand  -0.25398 0.0180481 5.50724
RightShoulder  4.00423 6.80739 32.889
RightArm  -10.5441 -12.0113 22.8835
RightForeArm  -5.25949 20.4013 5.20246
RightHand  -1.29078 3.93727 -16.3089
LeftUpLeg  -0.352694 0.56488 22.9033
LeftLeg  32.5097 9.14808 6.55885
LeftFoot  4.36437 0.542244 -3.87739
LeftToes  1.06248e-005 4.65856e-005 -8.18499e-006
121
root  -46.5631 38.826 20.3631 -175.698 55.5453 -179.379
RightUpLeg  -20.6721 -28.946 -8.92457
RightLeg  32.224 -3.83292 -2.85221
RightFoot  -9.1725 -0.252699 10.2597
RightToes  0.000482159 0.542163 -0.142577
Spine  21.1295 -2.16443 13.3251
Spine1  2.39935 1.29612 -3.53513
HEad  -46.4014 59.6724 -45.0442
LeftShoulder1  6.92909 -10.3062 -43.6472
LeftArm  -19.6153 9.80008 -30.429
LeftForeArm  41.2767 -61.4552 -16.8208
LeftHand  -0.25398 0.0180481 5.50724
RightShoulder  3.9307 6.76412 32.337
RightArm  -10.0317 -18.9782 22.6774
RightForeArm  -5.68945 16.2053 5.73828
RightHand  -1.20656 3.77668 -15.4941
LeftUpLeg  -6.72833 3.54543 21.9555
LeftLeg  39.5848 10.4999 9.48677
LeftFoot  7.864 -0.249424 1.33972
LeftToes  1.06248e-005 4.65856e-005 -8.18499e-006
122
root  -44.6619 39.3027 21.0116 -177.21 52.5926 178.562
RightUpLeg  -16.6618 -30.4075 -8.80779
RightLeg  30.3552 -4.6004 -3.1538
RightFoot  -10.7245 -0.127908 10.2369
RightToes  0.000482159 0.542163 -0.142577
Spine  20.8482 -1.23975 14.0128
Spine1  2.45604 2.91669 -6.54514
HEad  -50.7454 63.0244 -49.1428
LeftShoulder1  7.01124 -10.2677 -44.3212
LeftArm  -16.4226 11.3192 -29.6911
LeftForeArm  46.7447 -55.6399 -12.4631
LeftHand  -0.25398 0.0180481 5.50724
RightShoulder  3.87838 6.69549 32.0806
RightArm  -11.2842 -25.087 24.1005
RightForeArm  -2.19028 12.3448 5.98191
RightHand  -1.0088 3.23188 -13.8314
LeftUpLeg  -12.1494 7.86551 18.5011
LeftLeg  44.5043 8.64527 9.35618
LeftFoot  5.88857 0.0288626 -0.503834
LeftToes  1.06248e-005 4.65856e-005 -8.18499e-006
